<?xml version="1.0" standalone="no"?>
<!DOCTYPE svg PUBLIC "-//W3C//DTD SVG 20010904//EN"
 "http://www.w3.org/TR/2001/REC-SVG-20010904/DTD/svg10.dtd">
<svg version="1.0" xmlns="http://www.w3.org/2000/svg"
 width="1024.000000pt" height="1024.000000pt" viewBox="0 0 1024.000000 1024.000000"
 preserveAspectRatio="xMidYMid meet">
<metadata>
Created by potrace 1.14, written by Peter Selinger 2001-2017
</metadata>
<g transform="translate(0.000000,1024.000000) scale(0.100000,-0.100000)"
fill="#000000" stroke="none">
<path d="M1435 10224 c-185 -36 -363 -132 -497 -266 -74 -75 -118 -124 -118
-133 0 -3 -15 -27 -33 -53 -57 -82 -107 -207 -134 -337 -4 -22 -8 -1968 -8
-4325 0 -4064 1 -4288 18 -4350 23 -87 24 -90 40 -130 33 -83 42 -100 49 -100
4 0 8 -6 8 -13 0 -11 51 -92 88 -140 27 -33 144 -149 182 -179 33 -26 158
-102 170 -104 3 0 27 -10 53 -22 27 -12 54 -22 61 -22 7 0 17 -5 24 -12 7 -7
12 -9 12 -5 0 3 12 2 26 -3 14 -6 49 -13 77 -18 72 -10 7292 -9 7342 1 22 5
45 10 50 11 6 2 24 6 40 11 39 10 159 57 165 64 3 3 31 19 63 36 31 16 57 33
57 36 0 4 9 10 19 14 30 9 182 163 233 235 50 70 128 223 128 250 0 9 5 21 12
28 7 7 9 12 5 12 -3 0 -2 11 3 25 5 14 13 46 17 72 10 60 11 8551 1 8613 -12
78 -18 100 -42 163 -91 237 -217 386 -451 535 -11 6 -31 17 -45 23 -14 5 -43
19 -65 29 -23 11 -77 30 -120 42 l-80 23 -3640 2 c-3068 1 -3651 -1 -3710 -13z
m811 -1264 c14 6 24 6 24 0 0 -5 12 -5 28 -1 15 5 37 5 49 0 13 -5 25 -4 28 1
3 6 15 6 30 0 15 -6 27 -6 30 0 3 6 15 6 30 0 15 -6 27 -6 30 0 3 6 15 6 30 0
15 -6 27 -6 30 0 3 6 15 6 30 0 15 -6 27 -6 30 0 3 6 15 6 30 0 15 -6 27 -6
30 0 3 6 15 6 30 0 15 -6 27 -6 30 0 3 6 15 6 30 0 15 -6 27 -6 30 0 3 6 15 6
30 0 15 -6 27 -6 30 0 3 6 15 6 30 0 15 -6 27 -6 30 0 3 6 15 6 30 0 15 -6 27
-6 30 0 3 6 15 6 30 0 15 -6 27 -6 30 0 3 6 15 6 30 0 15 -6 27 -6 30 0 3 6
15 6 30 0 15 -6 27 -6 30 0 3 6 15 6 30 0 15 -6 27 -6 30 0 3 6 15 6 30 0 15
-6 27 -6 30 0 3 6 15 6 30 0 15 -6 27 -6 30 0 3 6 15 6 30 0 15 -6 27 -6 30 0
3 6 15 6 30 0 15 -6 27 -6 30 0 3 6 15 6 30 0 15 -6 27 -6 30 0 3 6 15 6 30 0
15 -6 27 -6 30 0 3 6 15 6 30 0 15 -6 27 -6 30 0 3 6 15 6 30 0 15 -6 27 -6
30 0 3 6 15 6 30 0 15 -6 27 -6 30 1 4 5 11 6 17 3 14 -9 103 -9 117 0 6 4 11
3 11 -3 0 -6 11 -6 30 -1 16 5 32 5 35 0 3 -5 19 -5 35 0 16 5 32 5 35 0 3 -5
19 -5 35 0 17 5 32 5 35 0 3 -5 16 -5 30 0 15 6 27 6 30 0 3 -6 15 -6 30 0 15
6 25 6 25 0 0 -5 12 -5 30 0 16 5 32 5 35 0 3 -5 19 -5 35 0 16 5 32 5 35 0 3
-5 19 -5 35 0 17 5 32 5 35 0 3 -5 16 -5 30 0 15 6 27 6 30 0 3 -6 15 -6 30 0
15 6 25 6 25 0 0 -5 12 -5 30 0 16 5 32 5 35 0 3 -5 19 -5 35 0 16 5 32 5 35
0 3 -5 19 -5 35 0 17 5 32 5 35 0 3 -5 16 -5 30 0 15 6 27 6 30 0 3 -6 15 -6
30 0 15 6 25 6 25 0 0 -5 12 -5 30 0 16 5 32 5 35 0 3 -5 19 -5 35 0 16 5 32
5 35 0 3 -5 19 -5 35 0 17 5 32 5 35 0 3 -5 13 -6 21 -3 25 9 57 10 81 1 13
-4 25 -3 28 2 4 7 13 7 24 0 10 -5 21 -7 24 -3 9 8 1253 7 1266 -1 6 -4 11 -4
11 1 0 9 67 9 76 0 3 -3 17 -2 30 3 14 6 26 6 29 0 3 -6 15 -6 30 0 15 6 27 6
30 0 3 -6 15 -6 30 0 15 6 27 6 30 0 3 -6 15 -6 30 0 15 6 27 6 30 0 3 -6 15
-6 30 0 15 6 27 6 30 0 3 -6 15 -6 30 0 15 6 27 6 30 0 3 -6 15 -6 30 0 15 6
27 6 30 0 3 -6 15 -6 30 0 15 6 27 6 30 0 3 -6 15 -6 30 0 15 6 27 6 30 0 3
-6 15 -6 30 0 15 6 27 6 30 0 3 -6 15 -6 30 0 15 6 27 6 30 0 3 -6 15 -6 30 0
15 6 27 6 30 0 3 -6 15 -6 30 0 15 6 27 6 30 0 3 -6 15 -6 30 0 15 6 27 6 30
0 3 -6 15 -6 30 0 15 6 27 6 30 0 3 -6 15 -6 30 0 15 6 27 6 30 0 3 -6 15 -6
29 0 13 5 27 6 30 3 8 -8 102 -7 116 2 5 3 10 2 10 -4 0 -6 11 -6 30 -1 16 5
32 5 35 0 3 -5 19 -5 35 0 16 5 32 5 35 0 3 -5 19 -5 35 0 17 5 32 5 35 0 3
-5 16 -5 28 -1 12 5 32 5 44 0 13 -5 25 -4 28 2 4 5 11 7 16 3 5 -3 22 -7 37
-9 49 -6 98 -33 141 -76 47 -48 71 -95 76 -152 2 -21 6 -41 9 -44 3 -3 1 -13
-4 -22 -5 -10 -5 -23 0 -31 5 -8 5 -21 0 -30 -5 -9 -5 -22 0 -30 5 -8 5 -21 0
-30 -5 -9 -5 -22 0 -29 4 -8 4 -27 0 -42 -5 -16 -5 -29 0 -29 5 0 5 -13 0 -30
-5 -16 -6 -30 -2 -30 8 0 7 -84 -1 -97 -3 -5 -2 -15 3 -23 4 -7 4 -24 0 -36
-6 -14 -5 -26 0 -29 5 -3 5 -18 0 -34 -4 -15 -4 -34 0 -41 5 -7 4 -24 0 -36
-6 -14 -5 -26 0 -29 6 -4 7 -13 1 -24 -6 -10 -6 -23 -1 -31 5 -8 5 -21 0 -30
-5 -9 -5 -22 0 -30 4 -7 4 -24 0 -36 -6 -14 -5 -26 0 -29 5 -3 5 -18 0 -34 -4
-15 -4 -34 0 -41 5 -7 4 -24 0 -36 -6 -14 -5 -26 0 -29 6 -4 7 -13 1 -24 -6
-10 -6 -23 -1 -31 5 -8 5 -21 0 -30 -5 -9 -5 -22 0 -30 4 -7 4 -24 0 -36 -6
-14 -5 -26 0 -29 5 -3 5 -18 0 -34 -4 -15 -4 -34 0 -41 5 -7 4 -24 0 -36 -6
-14 -5 -26 0 -29 6 -4 7 -13 1 -24 -6 -10 -6 -23 -1 -31 5 -8 5 -21 0 -30 -5
-9 -5 -22 0 -30 4 -7 4 -24 0 -36 -6 -14 -5 -26 0 -29 5 -3 5 -18 0 -34 -4
-15 -4 -34 0 -41 5 -7 4 -24 0 -36 -6 -14 -5 -26 1 -29 5 -4 7 -11 3 -16 -7
-13 -11 -99 -4 -99 3 0 4 -15 3 -32 -2 -38 -3 -85 -3 -110 0 -10 0 -25 0 -33
0 -8 0 -22 0 -30 0 -8 0 -22 0 -30 0 -8 0 -22 0 -30 0 -8 0 -23 0 -32 0 -10 0
-25 0 -33 0 -15 -7 -53 -10 -57 -2 -2 -3 -6 -4 -10 -5 -23 -39 -75 -68 -103
-42 -42 -120 -78 -164 -76 -19 1 -34 -2 -34 -6 0 -3 -12 -3 -28 1 -15 5 -37 4
-50 0 -12 -5 -22 -4 -22 1 0 5 -13 5 -30 0 -16 -5 -32 -5 -35 0 -3 5 -19 5
-35 0 -16 -5 -32 -5 -35 0 -3 5 -19 5 -35 0 -17 -5 -32 -5 -35 0 -3 5 -13 6
-21 3 -25 -9 -57 -10 -81 -1 -13 4 -25 3 -28 -2 -4 -7 -13 -7 -24 0 -10 5 -21
7 -24 3 -9 -8 -1253 -7 -1266 1 -6 4 -11 4 -11 -1 0 -9 -67 -9 -76 0 -3 3 -17
2 -30 -3 -14 -6 -26 -6 -29 0 -3 6 -15 6 -30 0 -15 -6 -27 -6 -30 0 -3 6 -15
6 -30 0 -15 -6 -27 -6 -30 0 -3 6 -15 6 -30 0 -15 -6 -27 -6 -30 0 -3 6 -15 6
-30 0 -15 -6 -27 -6 -30 0 -3 6 -15 6 -30 0 -15 -6 -27 -6 -30 0 -3 6 -15 6
-30 0 -15 -6 -27 -6 -30 0 -3 6 -15 6 -30 0 -15 -6 -27 -6 -30 0 -3 6 -15 6
-30 0 -15 -6 -27 -6 -30 0 -3 6 -15 6 -30 0 -15 -6 -27 -6 -30 0 -3 6 -15 6
-30 0 -15 -6 -27 -6 -30 0 -3 6 -15 6 -30 0 -15 -6 -27 -6 -30 0 -3 6 -15 6
-30 0 -15 -6 -27 -6 -30 0 -3 6 -15 6 -30 0 -15 -6 -27 -6 -30 0 -3 6 -15 6
-30 0 -15 -6 -27 -6 -30 0 -3 6 -15 6 -30 0 -15 -6 -27 -6 -30 0 -3 6 -15 6
-30 0 -13 -5 -26 -6 -29 -2 -3 5 -30 5 -61 2 -31 -3 -58 -3 -61 2 -3 4 -16 3
-29 -2 -15 -6 -27 -6 -30 0 -3 6 -15 6 -30 0 -15 -6 -27 -6 -30 0 -3 6 -15 6
-30 0 -15 -6 -27 -6 -30 0 -3 6 -15 6 -30 0 -15 -6 -27 -6 -30 0 -3 6 -15 6
-30 0 -15 -6 -27 -6 -30 0 -3 6 -15 6 -30 0 -15 -6 -27 -6 -30 0 -3 6 -15 6
-30 0 -15 -6 -27 -6 -30 0 -3 6 -15 6 -30 0 -15 -6 -27 -6 -30 0 -3 6 -15 6
-30 0 -15 -6 -27 -6 -30 0 -3 6 -15 6 -30 0 -15 -6 -27 -6 -30 0 -3 6 -15 6
-30 0 -15 -6 -27 -6 -30 0 -3 6 -15 6 -30 0 -15 -6 -27 -6 -30 0 -3 6 -15 6
-30 0 -15 -6 -27 -6 -30 0 -3 6 -15 6 -30 0 -15 -6 -27 -6 -30 0 -3 6 -15 6
-30 0 -15 -6 -27 -6 -30 0 -3 6 -15 6 -30 0 -15 -6 -27 -6 -30 0 -3 6 -15 6
-30 0 -14 -5 -27 -5 -30 0 -3 5 -18 5 -35 0 -19 -5 -30 -5 -30 1 0 6 -5 7 -11
3 -13 -8 -1237 -9 -1246 -1 -3 4 -13 2 -22 -3 -10 -5 -23 -5 -31 0 -8 5 -21 5
-30 0 -9 -5 -22 -5 -28 -1 -7 4 -33 5 -58 1 -24 -4 -47 -3 -50 1 -2 5 -16 4
-29 -1 -15 -6 -27 -6 -30 0 -3 6 -15 6 -30 0 -15 -6 -27 -6 -30 0 -3 6 -15 6
-30 0 -15 -6 -27 -6 -30 0 -3 6 -15 6 -30 0 -15 -6 -27 -6 -30 0 -3 6 -15 6
-29 0 -13 -5 -27 -6 -30 -3 -3 4 -25 7 -48 8 -24 2 -44 4 -45 5 -2 1 -6 3 -10
4 -5 1 -26 12 -48 25 -71 43 -119 110 -128 177 -4 23 -7 45 -8 50 -1 5 -1 11
1 14 5 15 4 80 -2 80 -4 0 -3 14 2 30 5 17 5 30 0 30 -5 0 -5 13 0 30 5 17 5
30 0 30 -5 0 -5 13 0 30 5 17 5 30 0 30 -5 0 -5 13 0 30 5 17 5 30 0 30 -5 0
-5 13 0 30 5 17 5 30 0 30 -5 0 -5 13 0 29 4 15 4 34 0 42 -5 7 -4 21 1 30 6
11 5 20 -1 24 -5 3 -6 15 0 29 4 12 4 29 0 36 -5 8 -4 22 1 31 6 11 5 20 -1
24 -5 3 -6 15 -1 28 5 12 5 34 0 49 -4 16 -4 28 1 28 5 0 5 13 0 30 -5 17 -5
30 0 30 5 0 5 13 0 29 -4 15 -4 34 0 42 5 7 5 20 0 29 -5 9 -5 22 0 30 5 8 5
20 1 28 -4 8 -5 31 -1 52 4 21 4 44 -1 51 -4 7 -3 21 2 30 6 11 5 20 -1 24 -5
3 -6 15 -1 28 5 12 5 34 0 49 -4 16 -4 28 1 28 5 0 5 13 0 30 -5 17 -5 30 0
30 5 0 5 13 0 30 -5 17 -5 32 0 35 5 3 5 16 0 30 -6 15 -6 27 0 30 6 3 6 15 0
30 -6 15 -6 27 0 30 6 3 6 15 0 30 -6 15 -6 27 0 30 5 3 6 15 1 28 -5 12 -5
34 0 49 4 16 4 28 -1 28 -5 0 -5 13 0 30 5 17 5 30 0 30 -5 0 -5 13 0 30 5 17
5 30 0 30 -5 0 -5 13 0 30 5 17 5 30 0 30 -5 0 -5 13 0 30 5 17 5 30 0 30 -5
0 -5 13 0 30 5 17 6 30 2 30 -8 0 -8 68 1 76 3 3 1 19 -3 35 -5 17 -5 31 1 35
5 3 7 10 4 15 -4 5 -1 9 4 9 6 0 11 7 11 15 0 37 78 122 137 150 18 9 52 18
76 21 23 3 44 7 46 10 3 2 9 0 14 -5 6 -6 19 -6 33 -1z m176 -3845 c3 4 107 6
148 4 8 -1 44 -1 80 0 36 0 72 0 80 0 19 -1 175 0 214 1 52 1 125 -32 172 -79
49 -48 72 -94 80 -156 8 -59 10 -205 3 -205 -7 0 -3 -55 5 -69 4 -5 2 -12 -3
-16 -7 -4 -7 -15 -1 -30 6 -16 6 -25 0 -25 -6 0 -6 -9 -1 -22 11 -30 11 -39 0
-60 -7 -12 -6 -18 1 -18 8 0 8 -6 0 -20 -8 -14 -8 -20 0 -20 8 0 8 -6 0 -20
-8 -14 -8 -20 0 -20 8 0 8 -6 0 -20 -8 -14 -8 -20 0 -20 8 0 8 -6 0 -20 -8
-14 -8 -20 0 -20 8 0 8 -6 0 -20 -8 -14 -8 -20 0 -20 8 0 8 -6 0 -20 -8 -14
-8 -20 0 -20 8 0 8 -6 0 -20 -8 -14 -8 -20 0 -20 8 0 8 -6 0 -20 -8 -14 -8
-20 0 -20 6 0 8 -5 4 -11 -3 -6 -8 -26 -10 -44 -6 -68 -69 -157 -135 -190 -16
-9 -32 -16 -36 -16 -5 0 -14 -5 -20 -11 -7 -6 -13 -8 -13 -5 0 3 -16 1 -35 -3
-19 -4 -35 -4 -35 0 0 5 -13 5 -30 0 -17 -5 -32 -5 -35 0 -3 5 -16 5 -30 0
-15 -6 -27 -6 -30 0 -3 6 -15 6 -30 0 -15 -6 -27 -6 -30 0 -3 6 -15 6 -30 0
-15 -6 -27 -6 -30 0 -3 6 -15 6 -30 0 -13 -5 -27 -6 -29 -1 -3 4 -25 5 -49 1
-25 -3 -54 -3 -65 1 -12 5 -24 4 -27 -1 -3 -6 -15 -6 -29 0 -13 5 -27 6 -30 3
-8 -8 -172 -6 -185 2 -5 3 -12 1 -16 -5 -4 -6 -10 -8 -15 -5 -4 3 -26 7 -48
10 -113 14 -214 112 -228 221 -2 20 -7 40 -10 45 -3 5 -1 9 5 9 6 0 6 11 1 28
-4 16 -4 35 1 43 4 8 4 21 -1 29 -4 7 -4 24 0 36 6 14 5 26 0 29 -5 3 -5 18 0
34 4 15 4 34 0 41 -5 7 -4 24 0 36 6 14 5 26 -1 29 -5 4 -7 11 -3 16 7 13 11
99 4 99 -3 0 -4 15 -3 33 2 37 3 84 3 110 0 9 0 24 0 32 0 8 0 22 0 30 0 8 0
22 0 30 0 8 0 22 0 30 0 8 0 23 0 33 0 9 0 24 0 32 0 15 7 53 10 58 2 1 3 5 4
10 10 42 96 142 123 142 7 0 13 4 13 8 0 17 70 29 180 31 62 0 115 3 118 5 2
3 14 1 27 -4 13 -5 25 -7 27 -5z m2561 2 c7 7 296 5 307 -2 6 -4 10 -2 10 3 0
5 12 7 28 6 15 -2 74 -5 132 -7 72 -2 116 -9 141 -21 39 -18 109 -80 109 -96
0 -5 4 -10 8 -10 11 0 32 -62 38 -112 2 -24 6 -48 8 -54 2 -6 1 -17 -4 -24 -4
-7 -4 -26 0 -41 5 -16 5 -31 1 -34 -5 -2 -5 -23 -1 -45 4 -22 4 -40 0 -40 -4
0 -4 -18 0 -40 4 -22 4 -43 -1 -45 -4 -3 -4 -18 0 -33 5 -15 5 -36 1 -47 -4
-11 -4 -29 0 -40 4 -11 4 -29 0 -40 -4 -11 -4 -29 0 -40 4 -11 4 -29 0 -40 -4
-11 -4 -31 0 -45 4 -14 3 -39 -1 -57 -3 -18 -4 -35 -1 -38 3 -3 5 -30 4 -61
-3 -141 -135 -281 -259 -275 -18 1 -34 1 -135 0 -48 0 -91 2 -96 5 -4 2 -14 1
-22 -4 -8 -5 -21 -5 -31 1 -11 6 -20 5 -24 -1 -3 -5 -15 -6 -28 -1 -12 4 -35
4 -52 1 -16 -3 -40 -3 -52 1 -12 5 -25 4 -28 -1 -3 -6 -15 -6 -29 0 -13 5 -27
6 -30 3 -8 -8 -172 -6 -185 2 -5 3 -12 1 -16 -5 -4 -6 -10 -8 -15 -5 -4 3 -26
7 -48 10 -101 13 -186 86 -220 188 -11 34 -17 63 -13 65 5 1 5 19 1 40 -3 20
-3 49 1 63 3 15 3 32 -1 39 -4 7 -4 25 0 40 4 15 4 33 0 40 -4 7 -4 25 0 40 4
15 4 33 0 40 -4 7 -4 24 0 39 4 14 6 35 4 46 -3 19 -5 46 -4 90 0 11 0 40 0
64 0 24 3 47 6 52 3 5 1 9 -4 9 -6 0 -7 14 -2 34 4 19 4 40 -1 47 -4 7 -6 16
-4 20 3 4 6 35 8 71 6 96 64 179 157 222 43 20 68 24 167 25 64 0 118 3 121 5
2 3 14 1 27 -4 13 -5 25 -6 28 -3z m2532 1 c3 3 321 3 520 1 87 -2 144 -23
199 -76 48 -45 75 -95 82 -149 2 -20 7 -40 10 -45 3 -5 1 -9 -5 -9 -6 0 -6
-11 -1 -29 4 -15 4 -34 0 -42 -5 -7 -5 -20 0 -28 4 -8 4 -25 -1 -38 -5 -13 -4
-25 1 -28 5 -3 5 -18 0 -34 -4 -15 -4 -34 0 -41 5 -7 4 -24 0 -36 -6 -14 -5
-26 1 -29 5 -4 7 -11 3 -16 -8 -13 -11 -99 -4 -99 6 0 3 -89 -4 -106 -2 -6 0
-17 4 -24 5 -8 5 -21 0 -30 -5 -9 -5 -22 0 -30 5 -8 5 -21 0 -30 -5 -9 -5 -22
0 -30 5 -8 5 -21 0 -30 -5 -9 -5 -22 0 -30 5 -8 5 -21 0 -30 -5 -9 -5 -22 0
-30 5 -8 5 -21 0 -30 -5 -9 -5 -22 0 -30 5 -8 5 -21 0 -30 -5 -9 -5 -22 0 -30
5 -8 5 -21 0 -30 -5 -9 -5 -22 0 -30 5 -8 5 -21 0 -30 -5 -9 -5 -22 0 -30 5
-8 5 -21 0 -30 -5 -9 -5 -22 0 -30 5 -8 5 -21 0 -30 -5 -9 -5 -22 0 -30 5 -8
5 -21 0 -30 -5 -9 -5 -22 0 -30 5 -8 5 -21 0 -30 -5 -9 -5 -22 0 -30 5 -8 5
-21 0 -30 -5 -9 -5 -22 0 -30 5 -8 5 -21 0 -30 -5 -9 -5 -22 0 -30 5 -8 5 -21
0 -30 -5 -9 -5 -22 0 -29 4 -8 4 -27 0 -42 -5 -16 -5 -29 0 -29 5 0 5 -13 0
-30 -5 -16 -6 -30 -2 -30 8 0 7 -84 -1 -97 -3 -5 -2 -15 3 -23 4 -7 4 -24 0
-36 -6 -14 -5 -26 0 -29 5 -3 5 -18 0 -34 -4 -15 -4 -34 0 -41 5 -7 4 -24 0
-36 -6 -14 -5 -26 0 -29 6 -4 7 -13 1 -24 -6 -10 -6 -23 -1 -31 5 -8 5 -21 0
-30 -5 -9 -5 -22 0 -30 4 -7 4 -24 0 -36 -6 -14 -5 -26 0 -29 5 -3 5 -18 0
-34 -4 -15 -4 -34 0 -41 5 -7 4 -24 0 -36 -6 -14 -5 -26 0 -29 6 -4 7 -13 1
-24 -6 -10 -6 -23 -1 -31 5 -8 5 -21 0 -30 -5 -9 -5 -22 0 -30 4 -7 4 -24 0
-36 -6 -14 -5 -26 0 -29 5 -3 5 -18 0 -34 -4 -15 -4 -34 0 -41 5 -7 4 -24 0
-36 -6 -14 -5 -26 0 -29 6 -4 7 -13 1 -24 -6 -10 -6 -23 -1 -31 5 -8 5 -21 0
-30 -5 -9 -5 -22 0 -30 4 -7 4 -24 0 -36 -6 -14 -5 -26 0 -29 5 -3 5 -18 0
-34 -4 -15 -4 -34 0 -41 5 -7 4 -24 0 -36 -6 -14 -5 -26 1 -29 5 -4 7 -11 3
-16 -7 -13 -11 -99 -4 -99 3 0 4 -15 3 -32 -2 -38 -3 -85 -3 -110 0 -10 0 -25
0 -33 0 -8 0 -22 0 -30 0 -8 0 -22 0 -30 0 -8 0 -22 0 -30 0 -8 0 -23 0 -32 0
-10 0 -25 0 -33 0 -15 -7 -53 -10 -57 -2 -2 -3 -6 -4 -10 -5 -23 -39 -75 -68
-103 -42 -42 -120 -78 -164 -76 -19 1 -34 -2 -34 -6 0 -3 -12 -3 -28 1 -15 5
-37 4 -50 0 -12 -5 -22 -4 -22 1 0 5 -13 5 -30 0 -16 -5 -32 -5 -35 0 -3 5
-19 5 -35 0 -16 -5 -32 -5 -35 0 -3 5 -19 5 -35 0 -17 -5 -32 -5 -35 0 -3 5
-13 6 -21 3 -25 -9 -57 -10 -81 -1 -13 4 -25 3 -28 -2 -4 -7 -13 -7 -24 0 -10
5 -21 6 -25 3 -7 -7 -186 -7 -193 1 -3 2 -15 1 -28 -4 -13 -5 -26 -6 -29 -3
-3 4 -21 7 -38 9 -76 5 -168 75 -202 151 -9 21 -21 46 -27 55 -5 10 -6 18 -2
18 5 0 8 11 8 25 0 14 -4 25 -8 25 -4 0 -3 9 3 20 8 14 8 20 0 20 -8 0 -8 6 0
20 8 14 8 20 0 20 -8 0 -8 6 0 20 8 14 8 20 0 20 -8 0 -8 6 0 20 8 14 8 20 0
20 -8 0 -8 6 0 20 8 14 8 20 0 20 -8 0 -8 6 0 20 8 14 8 20 0 20 -8 0 -8 6 0
20 8 14 8 20 0 20 -8 0 -8 6 0 20 8 14 8 20 0 20 -7 0 -7 7 1 22 7 13 12 23
11 23 0 0 -5 12 -11 28 -6 16 -7 27 -1 27 6 0 6 9 0 25 -6 15 -6 26 1 30 6 4
6 13 0 23 -6 10 -6 23 0 34 7 12 6 18 -1 18 -7 0 -8 6 -1 17 6 11 6 24 0 35
-6 10 -5 19 1 23 7 4 7 12 0 25 -7 13 -7 21 0 25 7 4 7 12 0 25 -6 12 -7 21 0
25 5 3 6 15 1 28 -5 13 -5 30 0 39 6 11 5 19 -1 23 -7 4 -7 12 0 25 7 13 7 21
0 25 -7 4 -7 13 0 26 7 12 7 19 1 19 -6 0 -6 11 -1 30 5 17 5 30 0 30 -5 0 -5
13 0 30 5 19 5 30 -1 30 -7 0 -7 6 0 17 6 11 6 24 0 35 -6 10 -5 19 1 23 7 4
7 12 0 25 -7 13 -7 21 0 25 7 4 7 12 0 25 -6 12 -7 21 0 25 5 3 6 15 1 28 -5
13 -5 30 0 39 6 11 5 19 -1 23 -7 4 -7 12 0 25 7 13 7 21 0 25 -7 4 -7 13 0
26 7 12 7 19 1 19 -6 0 -6 11 -1 30 5 19 5 30 -1 30 -7 0 -7 6 0 17 6 11 6 24
0 35 -6 10 -5 19 1 23 6 4 6 15 0 30 -6 16 -6 25 0 25 6 0 5 11 -1 28 -6 15
-11 27 -11 27 -1 0 4 10 11 23 8 15 8 22 1 22 -8 0 -8 6 0 20 8 14 8 20 0 20
-8 0 -8 6 0 20 8 14 8 20 0 20 -8 0 -8 6 0 20 8 14 8 20 0 20 -8 0 -8 6 0 20
8 14 8 20 0 20 -8 0 -8 6 0 20 8 14 8 20 0 20 -8 0 -8 6 0 20 8 14 8 20 0 20
-8 0 -8 6 0 20 8 14 8 20 0 20 -8 0 -8 6 0 20 8 14 8 20 0 20 -8 0 -8 6 0 20
8 14 8 20 0 20 -8 0 -8 6 0 20 8 14 8 20 0 20 -8 0 -8 6 0 20 8 14 8 20 0 20
-8 0 -8 6 0 20 8 14 8 20 0 20 -8 0 -8 6 0 20 8 14 8 20 0 20 -8 0 -8 6 0 20
8 14 8 20 0 20 -7 0 -8 6 -1 18 11 21 11 33 0 54 -6 10 -5 19 1 23 6 3 6 15 0
30 -6 15 -6 27 0 30 6 4 7 13 1 24 -6 10 -6 23 -1 31 5 9 5 19 -1 26 -7 8 -6
14 1 19 7 4 7 12 0 25 -7 13 -7 21 0 25 7 5 8 11 1 19 -6 7 -6 17 -1 26 5 8 5
21 -1 31 -6 11 -5 20 1 24 5 3 6 15 1 28 -5 13 -5 30 0 39 6 11 5 19 -1 23 -7
4 -7 12 0 25 7 13 7 21 0 25 -6 4 -7 13 -1 24 6 10 6 23 1 31 -5 8 -5 21 0 31
5 9 6 19 3 23 -7 7 -10 66 -3 66 3 0 5 14 5 30 0 17 -3 30 -7 30 -4 0 -3 11 2
25 5 14 6 25 2 25 -9 0 -6 75 3 90 3 6 2 10 -4 10 -7 0 -7 8 -1 26 6 15 6 23
1 19 -6 -3 -6 6 -1 25 5 19 5 30 -1 30 -6 0 -8 4 -4 9 3 5 7 27 9 49 2 22 12
56 21 76 20 41 88 110 131 132 36 19 158 31 247 24 38 -3 70 -4 72 -2z m-5280
-2562 c11 0 26 3 32 7 6 4 14 3 18 -3 4 -6 12 -7 24 -1 10 6 23 6 31 1 8 -5
21 -5 31 1 11 6 20 5 24 -1 4 -7 12 -7 24 0 10 5 21 6 25 3 9 -10 56 -10 56 0
0 4 9 3 19 -3 13 -6 22 -7 26 0 4 6 15 6 30 0 16 -6 25 -6 25 0 0 6 9 6 23 1
13 -5 30 -5 39 0 11 6 19 5 23 -1 4 -7 13 -7 26 0 10 6 19 7 19 3 0 -4 11 -8
25 -8 14 0 25 2 25 5 0 7 91 2 98 -4 2 -3 15 -1 28 4 13 5 24 6 24 2 0 -4 17
-7 38 -8 45 -1 95 -24 138 -61 33 -30 78 -98 81 -123 3 -28 14 -74 19 -82 3
-4 0 -8 -6 -8 -8 0 -8 -6 0 -20 6 -12 7 -20 1 -20 -5 0 -6 -12 -2 -27 4 -16 4
-40 0 -55 -4 -16 -4 -28 1 -28 6 0 6 -10 0 -25 -6 -16 -6 -25 0 -25 6 0 6 -9
0 -25 -5 -14 -6 -25 -2 -25 4 0 7 -13 7 -30 0 -16 -3 -30 -7 -30 -4 0 -3 -11
2 -25 6 -16 6 -25 -1 -25 -6 0 -6 -7 1 -19 6 -13 7 -22 0 -26 -5 -3 -6 -15 -1
-28 5 -13 5 -30 0 -39 -6 -11 -5 -19 1 -23 7 -4 7 -12 0 -25 -7 -13 -7 -21 0
-25 6 -4 7 -13 1 -24 -6 -10 -6 -23 -1 -31 5 -8 5 -21 -1 -31 -6 -11 -5 -20 1
-24 6 -4 6 -15 0 -30 -6 -16 -6 -25 1 -25 6 0 6 -7 -1 -19 -7 -14 -7 -22 1
-27 8 -4 8 -9 0 -17 -6 -6 -11 -19 -11 -28 0 -26 -25 -68 -69 -114 -47 -49
-94 -74 -153 -81 -23 -3 -45 -7 -49 -10 -4 -2 -10 0 -14 5 -4 7 -15 7 -30 1
-15 -6 -25 -6 -25 0 0 5 -12 5 -28 1 -15 -5 -37 -5 -49 0 -13 5 -25 4 -28 -1
-3 -6 -15 -6 -30 0 -15 6 -27 6 -30 0 -3 -6 -15 -6 -30 0 -15 6 -27 6 -30 0
-3 -6 -15 -6 -30 0 -15 6 -27 6 -30 0 -3 -6 -15 -6 -30 0 -15 6 -27 6 -30 0
-3 -6 -15 -6 -30 0 -15 6 -27 6 -30 0 -3 -6 -15 -6 -30 0 -15 6 -27 6 -30 0
-3 -6 -15 -6 -30 0 -15 6 -27 6 -30 0 -3 -6 -15 -6 -30 0 -15 6 -27 6 -30 0
-3 -6 -15 -6 -30 0 -15 6 -27 6 -30 -1 -4 -5 -10 -7 -15 -4 -4 2 -25 7 -46 11
-46 7 -99 33 -135 66 -24 21 -72 92 -75 111 -1 4 -2 8 -3 10 -10 12 -18 138
-9 143 4 3 3 16 -2 29 -6 15 -6 27 0 30 6 3 6 15 0 30 -6 15 -6 27 0 30 6 3 6
15 0 30 -6 15 -6 27 0 30 5 3 6 15 1 28 -5 12 -5 34 0 49 4 16 4 28 -1 28 -5
0 -5 13 0 30 5 17 5 30 0 30 -5 0 -5 13 0 30 5 17 5 30 0 30 -5 0 -5 13 0 30
5 17 5 30 0 30 -5 0 -5 13 0 30 5 17 5 30 0 30 -5 0 -5 13 0 30 5 17 6 30 2
30 -8 0 -7 79 1 87 3 3 2 16 -3 29 -6 15 -6 24 0 24 6 0 10 8 10 19 0 28 24
69 69 116 45 48 97 76 148 80 19 2 37 6 40 9 3 3 11 2 17 -1 6 -4 20 -7 31 -7z
m2588 5 c10 6 18 5 22 -1 4 -7 13 -7 26 0 10 6 19 7 19 3 0 -4 11 -8 25 -8 14
0 25 2 25 5 0 7 78 3 97 -4 7 -3 13 -1 13 4 0 6 9 6 23 2 22 -9 75 -7 84 2 3
3 16 1 29 -4 16 -6 24 -6 24 1 0 6 7 6 19 -1 14 -7 22 -7 26 0 4 7 11 7 18 2
7 -5 21 -6 32 -2 11 4 30 4 43 -1 14 -5 22 -5 22 2 0 6 7 6 19 -1 14 -7 22 -7
27 1 4 7 10 7 16 1 7 -7 19 -7 33 -2 13 5 25 7 27 5 2 -3 20 -7 39 -9 55 -7
103 -32 148 -77 49 -49 70 -93 77 -164 3 -27 7 -56 9 -62 2 -7 1 -13 -4 -13
-5 0 -5 -18 -1 -40 4 -22 4 -43 0 -45 -4 -3 -4 -21 0 -40 4 -19 4 -35 0 -35
-4 0 -4 -16 0 -35 4 -19 4 -37 0 -40 -4 -2 -4 -22 0 -42 3 -21 7 -41 8 -45 0
-4 -3 -21 -8 -36 -4 -16 -4 -35 0 -42 4 -7 4 -25 0 -40 -4 -15 -4 -33 0 -40 4
-7 4 -25 0 -40 -4 -15 -4 -33 0 -40 4 -7 4 -26 0 -41 -5 -17 -5 -31 1 -35 5
-3 7 -9 5 -13 -3 -3 -7 -32 -10 -63 -11 -122 -102 -223 -219 -244 -17 -2 -34
-7 -38 -10 -4 -2 -10 0 -14 5 -3 7 -15 7 -30 1 -15 -6 -27 -6 -30 0 -3 6 -15
6 -30 0 -15 -6 -27 -6 -30 0 -3 6 -15 6 -30 0 -15 -6 -27 -6 -30 0 -3 6 -15 6
-30 0 -15 -6 -27 -6 -30 0 -3 6 -15 6 -29 0 -13 -5 -27 -6 -30 -3 -8 8 -102 7
-116 -2 -5 -3 -10 -2 -10 4 0 6 -11 6 -30 1 -16 -5 -32 -5 -35 0 -3 5 -19 5
-35 0 -16 -5 -32 -5 -35 0 -3 5 -19 5 -35 0 -17 -5 -32 -5 -35 0 -3 5 -16 5
-28 1 -12 -5 -32 -5 -44 0 -13 5 -25 4 -28 -1 -4 -7 -13 -7 -24 0 -10 5 -20 7
-23 5 -7 -8 -70 16 -103 39 -74 52 -112 114 -121 201 -3 27 -7 56 -9 63 -2 6
-1 12 4 12 5 0 5 18 1 40 -4 22 -4 43 0 45 4 3 4 21 0 40 -4 19 -4 35 0 35 4
0 4 16 0 35 -4 19 -4 37 0 40 4 2 4 22 0 42 -3 21 -7 41 -8 45 0 4 3 21 8 36
4 16 4 35 0 42 -4 7 -4 25 0 40 4 15 4 33 0 40 -4 7 -4 25 0 40 4 15 4 33 0
40 -4 7 -4 26 0 41 5 17 5 31 -1 35 -5 3 -7 9 -5 13 3 3 7 32 10 63 11 121
105 227 217 243 24 4 45 8 47 10 2 2 16 0 31 -5 15 -4 35 -4 44 1z"/>
</g>
</svg>
